<svg width="15" height="17" viewBox="0 0 15 17" fill="none" xmlns="http://www.w3.org/2000/svg">
<path d="M6.2333 12.3666V1.43331C6.2333 1.05553 6.3613 0.739087 6.6173 0.483976C6.8733 0.228865 7.18975 0.100864 7.56663 0.0999756C7.94441 0.0999756 8.2613 0.227976 8.5173 0.483976C8.7733 0.739976 8.90086 1.05642 8.89997 1.43331V12.3666L12.7666 8.49998C13.0111 8.25553 13.3222 8.13331 13.7 8.13331C14.0777 8.13331 14.3889 8.25553 14.6333 8.49998C14.8777 8.74442 15 9.05553 15 9.43331C15 9.81109 14.8777 10.1222 14.6333 10.3666L8.49997 16.5C8.2333 16.7666 7.92219 16.9 7.56663 16.9C7.21108 16.9 6.89997 16.7666 6.6333 16.5L0.499967 10.3666C0.255522 10.1222 0.133301 9.81109 0.133301 9.43331C0.133301 9.05553 0.255522 8.74442 0.499967 8.49998C0.744411 8.25553 1.05552 8.13331 1.4333 8.13331C1.81108 8.13331 2.12219 8.25553 2.36663 8.49998L6.2333 12.3666Z" fill="#666D80"/>
</svg>
