<svg width="20" height="29" viewBox="0 0 20 29" fill="none" xmlns="http://www.w3.org/2000/svg">
<path d="M10 4.31812V0.5L5 5.59088L10 10.6819V6.86356C14.1248 6.86356 17.5 10.2999 17.5 14.5C17.5 15.7727 17.1875 16.9821 16.6248 18.0635L18.4375 19.9092C19.4373 18.3181 20 16.4724 20 14.5C20 8.90006 15.4999 4.31812 10 4.31812ZM10 22.1365C5.87494 22.1365 2.5 18.6997 2.5 14.5C2.5 13.2273 2.8125 12.0182 3.37494 10.9362L1.5625 9.09087C0.562438 10.6181 0 12.5273 0 14.5C0 20.0999 4.50012 24.6819 10 24.6819V28.5L15 23.4092L10 18.3181V22.1365Z" fill="white"/>
</svg>
